PathFileType	4	(X/Y/Z)	Walk2.trc
DataRate	CameraRate	NumFrames	NumMarkers	Units	OrigDataRate	OrigDataStartFrame	OrigNumFrames
200.000000	200.000000	7	68	mm	200.000000	821	862
Frame#	Times		LFHD		LowerBodyModelVer		RCAR		RWRU		LElbow		LTH2		RACR1		RUA1		RASI		RFA1		LACR1		LTH4		LTB1		LLFC		RTH2		LMT5		LUA1		LTB4		LTB3		LTB2		LToe		LMT1		RTH4		LASI		PELOrigin		LLMAL		RBHD		STRN		RLFC		CLAV		RTH3		LFA1		LWRU		RBack		LPSI		RMT1		RMT5		LCAR		RTH1		RTB2		RCAL		LTH1		C7		RLMAL		RFHD		LBHD		RToe		RPSI		LHJC		MidPelvis		OPelvis		RHJC		SACR		XPelvis		YPelvis		ZPelvis		LWRR		RTB1		RTB3		RTB4		RMMAL		RWRR		RElbow		LTH3		LMMAL		T10		LCAL		LElbowM
			X1	Y1	Z1	X2	Y2	Z2	X3	Y3	Z3	X4	Y4	Z4	X5	Y5	Z5	X6	Y6	Z6	X7	Y7	Z7	X8	Y8	Z8	X9	Y9	Z9	X10	Y10	Z10	X11	Y11	Z11	X12	Y12	Z12	X13	Y13	Z13	X14	Y14	Z14	X15	Y15	Z15	X16	Y16	Z16	X17	Y17	Z17	X18	Y18	Z18	X19	Y19	Z19	X20	Y20	Z20	X21	Y21	Z21	X22	Y22	Z22	X23	Y23	Z23	X24	Y24	Z24	X25	Y25	Z25	X26	Y26	Z26	X27	Y27	Z27	X28	Y28	Z28	X29	Y29	Z29	X30	Y30	Z30	X31	Y31	Z31	X32	Y32	Z32	X33	Y33	Z33	X34	Y34	Z34	X35	Y35	Z35	X36	Y36	Z36	X37	Y37	Z37	X38	Y38	Z38	X39	Y39	Z39	X40	Y40	Z40	X41	Y41	Z41	X42	Y42	Z42	X43	Y43	Z43	X44	Y44	Z44	X45	Y45	Z45	X46	Y46	Z46	X47	Y47	Z47	X48	Y48	Z48	X49	Y49	Z49	X50	Y50	Z50	X51	Y51	Z51	X52	Y52	Z52	X53	Y53	Z53	X54	Y54	Z54	X55	Y55	Z55	X56	Y56	Z56	X57	Y57	Z57	X58	Y58	Z58	X59	Y59	Z59	X60	Y60	Z60	X61	Y61	Z61	X62	Y62	Z62	X63	Y63	Z63	X64	Y64	Z64	X65	Y65	Z65	X66	Y66	Z66	X67	Y67	Z67	X68	Y68	Z68

821	4.105	823.67	1574.6	-40.352	9	2014	4	602.41	792.46	319.25	574.11	854.1	340.28	656.57	1062.4	-288.62	768.76	642.6	-123.77	676.08	1389.7	180.02	620.04	1256.9	272.44	754.88	973.54	204.79	608.92	957.65	314.45	707.5	1356.4	-176.52	720.12	640.78	-158.42	678.24	335.03	-13.128	669.97	487.53	-120.08	803.13	671.3	239.87	730.5	26.842	-89.012	697.11	1208	-251.91	665.48	250.18	-18.714	658.58	165.27	-21.117	669.85	253.43	-81.096	788.74	31.436	2.0962	745.43	36.027	2.1412	746.19	654.3	249.73	778.02	959.78	-151.94	766.45	966.66	26.427	613.45	69.692	-81.582	655.87	1574.9	70.773	829.76	1228.2	26.947	788.88	485.29	235.75	766.41	1343.4	7.1486	770.57	570.95	240.67	721.96	942.76	-303.88	708.96	825.05	-335.09	542.22	1323	96.636	538.04	983.03	-84.287	780.84	47.927	151.11	749.03	45.305	231	748.45	780.18	-328.78	731.34	737.26	262.67	755.89	303.2	223.68	598.03	94.498	147.59	738.97	718.76	-186.55	605.32	1419	4.1616	649.37	116.97	203.42	813.16	1580.6	54.08	670.89	1566.3	-64.13	818.4	38.335	169.18	516.34	980	48.325	684.25	853.28	-96.508	646.82	974.09	4.2232	766.45	966.66	26.427	668.52	862.64	146.07	527.19	981.52	-17.981	846.1	961.4	31.795	771.91	1046.4	23.704	761.28	969.74	106.2	752.23	827.56	-271.15	823.61	364.79	169.53	734.95	205.47	141.35	779.28	285.13	155.44	687.21	119.68	126.17	615.25	855.72	279.75	563.26	1095.1	307.67	705.3	558.98	-130.48	620.91	73.318	1.998	549.91	1086.9	1.5673	555.97	29.653	-43.339	630.37	1028.2	-189.13
822	4.11	828	1574	-40.286	9	2014	4	604.79	791.94	318.55	576.64	853.75	339.7	662.6	1061.9	-289.03	771.62	641.63	-122.96	680.14	1389.2	179.98	623.68	1256.5	272.24	759.3	973.5	204.7	611.73	957.2	314.01	712.2	1356	-176.41	723.3	640.38	-158.09	678.89	334.92	-12.998	671.27	487.45	-120.04	808.44	671.46	239.42	730.51	26.841	-89.031	702.03	1207.8	-252.25	665.88	250.11	-18.596	658.83	165.14	-21.01	670.42	253.35	-81.016	788.82	31.402	2.0598	745.44	36.026	2.136	751.64	654.19	249.62	781.81	959.2	-151.99	770.55	966.35	26.358	613.49	69.719	-81.505	660.18	1574.5	70.791	833.73	1227.5	27.61	795.12	485.05	235.3	770.57	1342.8	7.3117	776.38	570.9	240.36	729.5	943.02	-303.93	718.17	825.16	-334.96	546.31	1322.7	96.318	541.93	982.6	-84.08	798.31	47.349	153.19	766.28	44.229	232.92	758.21	780.79	-328.37	736.32	737.1	262.56	766.56	302.16	223.85	614.21	89.001	148.96	743.35	718.16	-185.98	609.56	1418.6	3.9432	664.88	113	204.78	817.47	1580	54.145	675.23	1565.9	-64.11	836.04	38.865	171.37	520.27	979.64	48.458	688.16	852.79	-96.242	650.83	973.73	4.2736	770.55	966.35	26.358	672.85	862.51	146.31	531.1	981.12	-17.811	850.21	961.1	31.596	776	1046.1	23.504	765.52	969.55	106.14	760.97	828.1	-271.25	832.3	365.33	169.2	748.13	203.52	142.12	790.21	284.43	155.66	702.81	116.4	127.54	617.7	855.17	278.94	566.48	1094.8	307.38	707.25	558.75	-130.36	620.95	73.266	2.1111	553.84	1086.6	1.4252	555.98	29.646	-43.24	636.41	1027.5	-189.65
823	4.115	832.34	1573.4	-40.191	9	2014	4	607.22	791.39	317.9	579.21	853.36	339.16	668.62	1061.4	-289.41	774.48	640.69	-122.25	684.19	1388.6	179.98	627.34	1256	272.05	763.74	973.4	204.62	614.59	956.71	313.61	716.9	1355.6	-176.28	726.45	640	-157.79	679.62	334.79	-12.866	672.66	487.37	-119.97	813.68	671.53	238.96	730.53	26.835	-89.049	707.01	1207.5	-252.55	666.33	250.04	-18.478	659.1	165	-20.892	671.05	253.25	-80.929	788.91	31.366	2.0271	745.46	36.023	2.1337	757.01	654.03	249.51	785.59	958.63	-152.02	774.67	966.01	26.3	613.54	69.748	-81.437	664.48	1574	70.832	837.68	1226.7	28.267	801.18	484.75	234.83	774.73	1342.2	7.5046	782.06	570.79	240.02	737.01	943.28	-303.95	727.35	825.3	-334.77	550.39	1322.4	96.024	545.81	982.14	-83.812	815.84	46.963	155.3	783.61	43.344	234.88	767.91	781.43	-327.91	741.27	736.91	262.47	777.22	301.15	224.01	630.6	83.649	150.39	747.63	717.57	-185.45	613.82	1418.2	3.7526	680.54	109.16	206.19	821.78	1579.4	54.236	679.57	1565.4	-64.065	853.7	39.604	173.6	524.21	979.22	48.646	692.08	852.29	-95.972	654.84	973.34	4.3586	774.67	966.01	26.3	677.23	862.34	146.55	535.01	980.68	-17.583	854.33	960.78	31.397	780.09	1045.8	23.329	769.78	969.32	106.08	769.6	828.63	-271.25	840.87	365.88	168.85	761.36	201.67	142.92	801.12	283.78	155.88	718.55	113.25	128.95	620.18	854.5	278.14	569.73	1094.4	307.12	709.23	558.54	-130.28	620.99	73.223	2.219	557.77	1086.2	1.3248	555.99	29.651	-43.156	642.49	1026.8	-190.14
824	4.12	836.68	1572.7	-40.067	9	2014	4	609.7	790.81	317.29	581.82	852.92	338.65	674.62	1060.8	-289.77	777.34	639.76	-121.65	688.23	1388.1	180.02	631.03	1255.4	271.87	768.22	973.23	204.56	617.49	956.17	313.25	721.63	1355.1	-176.12	729.56	639.63	-157.54	680.44	334.64	-12.734	674.15	487.29	-119.9	818.85	671.53	238.49	730.55	26.823	-89.067	712.06	1207.2	-252.82	666.84	249.96	-18.363	659.4	164.85	-20.768	671.73	253.14	-80.838	788.99	31.331	1.9984	745.48	36.018	2.1342	762.3	653.83	249.4	789.37	958.06	-152.05	778.8	965.65	26.254	613.61	69.78	-81.378	668.8	1573.5	70.894	841.63	1226	28.91	807.06	484.39	234.34	778.9	1341.6	7.7255	787.61	570.62	239.68	744.5	943.54	-303.96	736.49	825.46	-334.53	554.48	1322	95.759	549.68	981.64	-83.482	833.42	46.79	157.39	801.01	42.67	236.85	777.57	782.09	-327.41	746.2	736.67	262.4	787.83	300.2	224.16	647.18	78.467	151.89	751.78	716.99	-184.98	618.1	1417.7	3.5938	696.35	105.48	207.65	826.09	1578.7	54.355	683.92	1565	-63.994	871.38	40.576	175.81	528.14	978.74	48.892	696.01	851.78	-95.703	658.85	972.92	4.4791	778.8	965.65	26.254	681.64	862.1	146.79	538.91	980.19	-17.295	858.47	960.45	31.199	784.19	1045.4	23.18	774.06	969.04	106.04	778.13	829.16	-271.13	849.33	366.45	168.48	774.62	199.92	143.72	811.98	283.19	156.1	734.4	110.26	130.39	622.69	853.72	277.38	573.01	1094.1	306.88	711.25	558.33	-130.22	621.03	73.192	2.3192	561.7	1085.8	1.2686	555.99	29.671	-43.088	648.59	1026.1	-190.59
825	4.125	841.03	1572.1	-39.911	9	2014	4	612.23	790.21	316.74	584.48	852.44	338.17	680.62	1060.3	-290.09	780.2	638.87	-121.15	692.26	1387.5	180.09	634.75	1254.8	271.71	772.73	973	204.51	620.43	955.59	312.94	726.36	1354.7	-175.92	732.63	639.26	-157.32	681.35	334.46	-12.605	675.76	487.21	-119.8	823.95	671.45	238	730.58	26.806	-89.085	717.17	1206.9	-253.05	667.42	249.87	-18.253	659.72	164.69	-20.639	672.46	253.02	-80.745	789.07	31.294	1.9738	745.5	36.011	2.1369	767.51	653.59	249.29	793.14	957.5	-152.08	782.93	965.25	26.218	613.68	69.814	-81.329	673.12	1573	70.978	845.57	1225.2	29.535	812.75	483.97	233.85	783.07	1340.9	7.9722	793.02	570.4	239.32	751.96	943.81	-303.94	745.58	825.63	-334.24	558.56	1321.6	95.526	553.54	981.12	-83.09	851.03	46.852	159.45	818.48	42.226	238.8	787.18	782.78	-326.86	751.09	736.39	262.34	798.4	299.31	224.32	663.91	73.478	153.45	755.79	716.43	-184.57	622.39	1417.3	3.4705	712.29	101.99	209.15	830.41	1578.1	54.502	688.28	1564.5	-63.897	889.05	41.802	177.97	532.09	978.21	49.197	699.95	851.25	-95.441	662.87	972.46	4.6357	782.93	965.25	26.218	686.08	861.79	147.04	542.81	979.67	-16.947	862.62	960.09	31.004	788.29	1045	23.057	778.37	968.72	106.01	786.57	829.69	-270.89	857.67	367.03	168.1	787.9	198.3	144.53	822.78	282.67	156.31	750.33	107.45	131.83	625.26	852.86	276.67	576.32	1093.6	306.68	713.34	558.12	-130.17	621.08	73.176	2.4093	565.63	1085.4	1.258	556	29.707	-43.037	654.72	1025.4	-191
826	4.13	845.39	1571.4	-39.722	9	2014	4	614.81	789.59	316.23	587.19	851.91	337.74	686.6	1059.8	-290.38	783.07	638.01	-120.75	696.29	1386.8	180.2	638.49	1254.1	271.56	777.25	972.7	204.48	623.41	954.97	312.66	731.09	1354.2	-175.7	735.67	638.9	-157.13	682.36	334.27	-12.484	677.47	487.12	-119.69	828.97	671.3	237.49	730.62	26.785	-89.104	722.36	1206.6	-253.23	668.06	249.77	-18.149	660.07	164.54	-20.512	673.24	252.89	-80.652	789.15	31.257	1.9533	745.52	36.002	2.1409	772.63	653.3	249.19	796.9	956.95	-152.1	787.08	964.82	26.192	613.77	69.852	-81.292	677.44	1572.5	71.086	849.51	1224.5	30.134	818.26	483.49	233.35	787.25	1340.2	8.2431	798.29	570.12	238.96	759.38	944.07	-303.9	754.62	825.83	-333.9	562.64	1321.2	95.328	557.39	980.58	-82.636	868.63	47.168	161.42	835.99	42.033	240.71	796.73	783.5	-326.26	755.95	736.08	262.31	808.91	298.49	224.48	680.79	68.706	155.07	759.66	715.88	-184.22	626.7	1416.8	3.386	728.34	98.692	210.67	834.74	1577.4	54.68	692.66	1563.9	-63.774	906.68	43.302	180.04	536.04	977.64	49.564	703.9	850.71	-95.195	666.9	971.96	4.8283	787.08	964.82	26.192	690.54	861.42	147.28	546.72	979.11	-16.536	866.78	959.7	30.811	792.39	1044.6	22.962	782.68	968.35	105.99	794.94	830.24	-270.54	865.87	367.62	167.71	801.17	196.83	145.34	833.52	282.23	156.52	766.33	104.86	133.29	627.87	851.93	276.01	579.66	1093.1	306.49	715.48	557.91	-130.13	621.14	73.175	2.4871	569.57	1085	1.294	556.01	29.76	-43.005	660.86	1024.6	-191.38
827	4.135	849.76	1570.7	-39.498	9	2014	4	617.45	788.94	315.77	589.94	851.35	337.33	692.59	1059.2	-290.63	785.95	637.19	-120.46	700.31	1386.2	180.36	642.25	1253.4	271.42	781.79	972.32	204.48	626.44	954.31	312.41	735.82	1353.7	-175.45	738.67	638.54	-156.98	683.46	334.05	-12.374	679.3	487.03	-119.56	833.9	671.08	236.98	730.65	26.76	-89.126	727.62	1206.3	-253.36	668.77	249.66	-18.055	660.44	164.38	-20.391	674.07	252.74	-80.563	789.23	31.219	1.9365	745.55	35.993	2.1453	777.67	652.97	249.08	800.67	956.41	-152.13	791.23	964.36	26.175	613.87	69.893	-81.266	681.77	1572	71.219	853.45	1223.7	30.705	823.58	482.95	232.87	791.44	1339.5	8.5365	803.41	569.79	238.61	766.78	944.35	-303.82	763.6	826.05	-333.5	566.72	1320.7	95.168	561.24	980	-82.119	886.19	47.758	163.29	853.54	42.107	242.53	806.22	784.24	-325.63	760.78	735.73	262.29	819.35	297.77	224.64	697.78	64.168	156.74	763.39	715.34	-183.93	631.01	1416.3	3.3429	744.49	95.62	212.21	839.07	1576.7	54.892	697.04	1563.4	-63.624	924.26	45.092	181.97	540.02	977.01	49.994	707.85	850.15	-94.97	670.93	971.44	5.0562	791.23	964.36	26.175	695.01	860.97	147.53	550.63	978.51	-16.063	870.95	959.29	30.622	796.49	1044.1	22.894	787.01	967.93	105.98	803.27	830.81	-270.1	873.93	368.24	167.32	814.41	195.5	146.14	844.17	281.87	156.73	782.36	102.49	134.73	630.54	850.96	275.42	583.04	1092.6	306.34	717.7	557.69	-130.09	621.2	73.19	2.5506	573.51	1084.5	1.3774	556.02	29.831	-42.991	667.02	1023.9	-191.73
